<?xml version="1.0" encoding="UTF-8" standalone="no"?>
<!-- Created with Inkscape (http://www.inkscape.org/) -->

<svg
   width="20px"
   height="33px"
   viewBox="100 -14 20 250"
   version="1.1"
   id="svg1"
   xmlns="http://www.w3.org/2000/svg"
   xmlns:svg="http://www.w3.org/2000/svg">

  <g
     id="layer1" fill="#FFFFFF">
    <path
       d="M 61.6 11 a 20.1 19.5 0 0 0 -20.1 19.5 a 20.1 19.5 0 0 0 0 0.4 v 8.5 h 8.5 c 0.5 0 0.9 0.4 0.9 0.9 v 1.7 c 0 0.5 -0.4 0.9 -0.9 0.9 h -8.5 v 9.4 h 17.4 c 0.5 0 0.9 0.4 0.9 0.9 v 1.7 c 0 0.5 -0.4 0.9 -0.9 0.9 h -17.4 v 9.8 h 8.5 c 0.5 0 0.9 0.4 0.9 0.9 v 1.7 c 0 0.5 -0.4 0.9 -0.9 0.9 h -8.5 v 9.9 h 17.4 c 0.5 0 0.9 0.4 0.9 0.9 v 1.7 c 0 0.5 -0.4 0.9 -0.9 0.9 h -17.4 v 9.9 h 8.4 c 0.5 0 0.9 0.4 0.9 0.9 v 1.7 c 0 0.5 -0.4 0.9 -0.9 0.9 h -8.4 v 9.6 h 17.3 c 0.5 0 0.9 0.4 0.9 0.9 v 1.7 c 0 0.5 -0.4 0.9 -0.9 0.9 h -17.3 v 10.3 h 8.5 c 0.5 0 0.9 0.4 0.9 0.9 v 1.7 c 0 0.5 -0.4 0.9 -0.8 0.9 h -8.6 v 9.6 h 17.3 c 0.5 0 0.9 0.4 0.9 0.9 v 1.7 c 0 0.5 -0.4 0.9 -0.9 0.9 h -17.3 v 9.3 h 8.4 c 0.5 0 0.9 0.4 0.9 0.9 v 1.7 c 0 0.5 -0.4 0.9 -0.9 0.9 h -8.4 v 9.5 a 20.1 19.5 0 0 0 0 1.2 a 20.1 19.5 0 0 0 0 0.6 v 0.2 a 20.1 19.5 0 0 0 20 18.7 a 20.1 19.5 0 0 0 12.9 -4.6 c 7.2 3.1 14.6 4.7 22.2 4.7 c 15.9 0 29.4 -5.4 40.3 -16.1 s 16.4 -23.9 16.4 -39.6 c 0 -15.3 -5.4 -28.4 -16.2 -39.3 c -10.7 -10.9 -23.6 -16.3 -38.7 -16.3 c -2.2 0 -5.7 0.2 -9.8 0.6 c 0 0 -0.1 0 -0.1 0 l -0.5 0 c -0.1 0 -0.2 0 -0.3 0 l -6.1 0.4 v -38 a 20.1 19.5 0 0 0 0 -0.7 a 20.1 19.5 0 0 0 -20.1 -19.5 z m 36.5 84.9 a 27.1 27.1 90 0 1 13.4 3.5 l -6.8 1 a 23.4 23.4 90 0 0 -6.6 -0.9 a 23.4 23.4 90 0 0 -23.4 23.4 a 23.4 23.4 90 0 0 23.4 23.4 a 23.4 23.4 90 0 0 23.4 -23.4 a 23.4 23.4 90 0 0 -0.3 -3.5 a 23.4 23.4 90 0 0 0 0 l 1.8 -7 a 27.1 27.1 90 0 1 2.2 10.7 a 27.1 27.1 90 0 1 -27.1 27.1 a 27.1 27.1 90 0 1 -27.1 -27.1 a 27.1 27.1 90 0 1 27.1 -27.1 z m 24.3 5.4 l -5 19.8 a 19.5 19.5 90 0 1 0.1 2.1 a 19.5 19.5 90 0 1 -19.5 19.5 a 19.5 19.5 90 0 1 -19.5 -19.5 a 19.5 19.5 90 0 1 19.5 -19.5 a 19.5 19.5 90 0 1 4.4 0.5 z" />
  </g>
</svg>
