<?xml version="1.0" encoding="UTF-8"?>
<svg id="Layer_1" xmlns="http://www.w3.org/2000/svg" version="1.1" viewBox="0 -2 34 42"
  width="34px"
  height="42px"
>
  <!-- Generator: Adobe Illustrator 30.2.1, SVG Export Plug-In . SVG Version: 2.1.1 Build 1)  -->
  <defs>
    <style>
      .st0 {
        fill: #faa41a;
      }

      .st1 {
        fill: #faa41c;
      }

      .st2 {
        fill: #fff;
      }
    </style>
  </defs>
  <path class="st2" d="M27.25,25.18c0-3.32-1.28-6.16-3.85-8.53-2.54-2.37-5.6-3.54-9.19-3.54-.52,0-1.35.04-2.33.13h-.21l-1.45.09V4.93c0-2.34-2.14-4.23-4.77-4.23l.02.11c-2.63,0-4.77,1.89-4.77,4.23v1.93h2.02c.12,0,.21.09.21.2v.37c0,.11-.09.2-.21.2H.7v2.04h4.13c.12,0,.21.09.21.2v.37c0,.11-.09.2-.21.2H.7v2.13h2.02c.12,0,.21.09.21.2v.37c0,.11-.09.2-.21.2H.7v2.15h4.13c.12,0,.21.09.21.2v.37c0,.11-.09.2-.21.2H.7v2.15h1.99c.12,0,.21.09.21.2v.37c0,.11-.09.2-.21.2H.7v2.08h4.11c.12,0,.21.09.21.2v.37c0,.11-.09.2-.21.2H.7v2.24h2.02c.12,0,.21.09.21.2v.37c0,.11-.09.2-.19.2H.7v2.08h4.11c.12,0,.21.09.21.2v.37c0,.11-.09.2-.21.2H.7v2.02h1.99c.12,0,.21.09.21.2v.37c0,.11-.09.2-.21.2H.7v2.49c.1,2.26,2.2,4.05,4.75,4.06,1.12,0,2.21-.36,3.06-1,1.71.67,3.47,1.02,5.27,1.02,3.77,0,6.98-1.17,9.57-3.49,2.59-2.32,3.89-5.19,3.89-8.59"/>
  <path class="st0" d="M14.58,19.58c1.11,0,2.21.26,3.18.76l-1.61.22c-.51-.13-1.04-.2-1.57-.2-3.07,0-5.56,2.27-5.56,5.08h0c0,2.8,2.49,5.08,5.56,5.08h0c3.07,0,5.56-2.27,5.56-5.08h0c0-.25-.03-.51-.07-.76h0l.43-1.52c.34.73.52,1.52.52,2.32,0,3.25-2.88,5.88-6.43,5.88s-6.43-2.63-6.43-5.88,2.88-5.88,6.43-5.88v-.02h-.01Z"/>
  <path class="st0" d="M20.58,21.03l-1.41,4.23v.46c-.12,2.33-2.29,4.12-4.85,3.98h0c-2.55-.14-4.52-2.14-4.4-4.47h0c.12-2.33,2.29-4.12,4.85-3.98h0c.35.02.7.07,1.04.16l4.77-.38Z"/>
  <path class="st1" d="M.7,5.17v1.84h2.02c.12,0,.21.09.21.2v.37c0,.11-.09.2-.21.2H.7v2.04h4.13c.12,0,.21.09.21.2v.37c0,.11-.09.2-.21.2H.7v2.13h2.02c.12,0,.21.09.21.2v.37c0,.11-.09.2-.21.2H.7v2.15h4.13c.12,0,.21.09.21.2v.37c0,.11-.09.2-.21.2H.7v2.15h1.99c.12,0,.21.09.21.2v.37c0,.11-.09.2-.21.2H.7v2.08h4.11c.12,0,.21.09.21.2v.37c0,.11-.09.2-.21.2H.7v2.24h2.02c.12,0,.21.09.21.2v.37c0,.11-.09.2-.19.2H.7v2.08h4.11c.12,0,.21.09.21.2v.37c0,.11-.09.2-.21.2H.7v2.02h1.99c.12,0,.21.09.21.2v.37c0,.11-.09.2-.21.2H.7v2.06"/>
</svg>