<?xml version="1.0" encoding="UTF-8" standalone="no"?>
<!-- Created with Inkscape (http://www.inkscape.org/) -->

<svg
   width="720"
   height="720"
   viewBox="0 0 190.49999 190.5"
   version="1.1"
   id="svg1"
   xmlns="http://www.w3.org/2000/svg"
   xmlns:svg="http://www.w3.org/2000/svg">
  <defs
     id="defs1">
    <linearGradient
       id="linearGradient4">
      <stop
         style="stop-color:#000000;stop-opacity:1;"
         offset="0"
         id="stop4" />
      <stop
         style="stop-color:#000000;stop-opacity:0;"
         offset="1"
         id="stop5" />
    </linearGradient>
  </defs>
  <g
     id="layer1">
    <path
       id="text3"
       style="font-size:219.702px;line-height:1.1;font-family:'Bauhaus 93';-inkscape-font-specification:'Bauhaus 93, ';text-align:center;direction:rtl;text-anchor:middle;white-space:pre;fill:#006666;fill-opacity:1;stroke-width:1.80783;stroke-opacity:0.0938628"
       d="m 61.617944,11.045321 a 20.06896,19.541157 0 0 0 -20.069059,19.541443 20.06896,19.541157 0 0 0 0.0041,0.395324 v 8.480103 h 8.489405 c 0.511707,0 0.923457,0.411751 0.923457,0.923458 v 1.704288 c 0,0.511707 -0.41175,0.923975 -0.923457,0.923975 h -8.489405 v 9.443351 h 17.379818 c 0.511707,0 0.923458,0.411751 0.923458,0.923458 v 1.704289 c 0,0.511707 -0.411751,0.923458 -0.923458,0.923458 H 41.553019 v 9.766845 h 8.546249 c 0.511707,0 0.923457,0.412268 0.923457,0.923975 v 1.704289 c 0,0.511707 -0.41175,0.923458 -0.923457,0.923458 h -8.546249 v 9.852628 h 17.407206 c 0.511707,0 0.923975,0.411752 0.923975,0.923458 v 1.704289 c 0,0.511706 -0.412268,0.923974 -0.923975,0.923974 H 41.553019 v 9.854696 h 8.393286 c 0.511706,0 0.923458,0.411751 0.923458,0.923458 v 1.704288 c 0,0.511707 -0.411752,0.923975 -0.923458,0.923975 h -8.393286 v 9.607679 H 58.86204 c 0.511707,0 0.923975,0.41176 0.923975,0.92346 v 1.70429 c 0,0.5117 -0.412268,0.92397 -0.923975,0.92397 H 41.553019 v 10.25209 h 8.489921 c 0.511707,0 0.923975,0.41228 0.923975,0.92398 v 1.70429 c 0,0.47672 -0.357911,0.86669 -0.820622,0.91777 H 41.55767 v 9.56789 h 17.31884 c 0.511707,0 0.923974,0.41175 0.923974,0.92346 v 1.70429 c 0,0.5117 -0.412267,0.92397 -0.923974,0.92397 H 41.55767 v 9.33173 h 8.407239 c 0.511707,0 0.923458,0.41227 0.923458,0.92398 v 1.70428 c 0,0.5117 -0.411751,0.92346 -0.923458,0.92346 H 41.55767 v 9.52035 a 20.06896,19.541157 0 0 0 -0.03824,1.2082 20.06896,19.541157 0 0 0 0.03824,0.56844 v 0.23771 h 0.01602 a 20.06896,19.541157 0 0 0 20.014799,18.73529 20.06896,19.541157 0 0 0 12.918591,-4.58732 c 7.236355,3.11708 14.631831,4.67569 22.186243,4.67569 15.948417,0 29.393327,-5.36389 40.335527,-16.09153 10.94218,-10.72764 16.41346,-23.92232 16.41346,-39.58466 0,-15.30476 -5.39934,-28.392564 -16.19849,-39.263238 C 126.51619,73.64665 113.60719,68.21134 98.516984,68.21134 c -2.232002,0 -5.686688,0.229151 -9.846944,0.590662 -0.03924,-0.0016 -0.07923,-0.0019 -0.119373,0.001 l -0.491959,0.03566 c -0.11702,0.0105 -0.150773,0.0053 -0.269235,0.01602 v 0.0031 l -6.114872,0.441834 V 31.268892 a 20.06896,19.541157 0 0 0 0.0124,-0.682128 20.06896,19.541157 0 0 0 -20.06906,-19.541443 z m 36.5125,84.946236 a 27.097324,27.097324 0 0 1 13.400736,3.546037 l -6.80579,0.993736 a 23.355375,23.355375 0 0 0 -6.589261,-0.948778 23.355375,23.355375 0 0 0 -23.355681,23.355168 23.355375,23.355375 0 0 0 23.355681,23.35568 23.355375,23.355375 0 0 0 23.355161,-23.35568 23.355375,23.355375 0 0 0 -0.2651,-3.50832 23.355375,23.355375 0 0 0 0,-5.1e-4 l 1.81023,-7.01456 a 27.097324,27.097324 0 0 1 2.19108,10.67428 27.097324,27.097324 0 0 1 -27.097056,27.09757 27.097324,27.097324 0 0 1 -27.09757,-27.09757 27.097324,27.097324 0 0 1 27.09757,-27.097053 z m 24.275526,5.360913 -5.01727,19.80499 a 19.50819,19.50819 0 0 1 0.11162,2.08515 19.50819,19.50819 0 0 1 -19.508369,19.50837 19.50819,19.50819 0 0 1 -19.507853,-19.50837 19.50819,19.50819 0 0 1 19.507853,-19.50837 19.50819,19.50819 0 0 1 4.357359,0.49299 z" />
  </g>
</svg>
